<?xml version="1.0" encoding="UTF-8"?>
<svg id="b" data-name="Layer 2" xmlns="http://www.w3.org/2000/svg" width="148.99" height="26.241" viewBox="0 0 148.99 26.241">
  <g id="c" data-name="Layer 1">
    <path d="M75.157,13.121l-.701-.701-.706.701.706.697.701-.697ZM74.456,18.259l-1.112,1.112,1.112,1.107,1.112-1.107-1.112-1.112ZM74.456,7.982l1.083-1.083-1.083-1.074-1.078,1.074,1.078,1.083ZM71.712,13.121l2.743,2.729,2.739-2.729-2.739-2.734-2.743,2.734ZM74.852,17.863l4.003,3.989-4.404,4.389-4.404-4.389,4.003-3.989-4.757-4.743,4.757-4.738-4.003-3.993,4.404-4.39,4.404,4.39-4.003,3.993,4.762,4.738-4.762,4.743ZM62.37,13.121l2.987-2.987-.382-.382-3.388,3.368,3.388,3.373.382-.382-2.987-2.992ZM58.324,13.121l-1.093-1.088-1.093,1.088,1.093,1.093,1.093-1.093ZM71.23,17.21l-3.168,3.163-3.092-3.077-1.236,1.226-5.014-5-1.489,1.484-1.493-1.484-4.103,4.094-2.061-2.052,2.448-2.443-2.448-2.438,2.061-2.052,4.103,4.094,1.493-1.493,1.489,1.493,5.014-5.005,1.236,1.236,3.092-3.082,3.168,3.168-4.098,4.084,4.098,4.084ZM92.834,13.121l-1.093-1.088-1.093,1.088,1.093,1.093,1.093-1.093ZM87.376,13.121l-3.378-3.368-.387.382,2.992,2.987-2.992,2.992.387.382,3.378-3.373ZM97.076,13.121l2.443,2.443-2.052,2.052-4.17-4.161-1.56,1.551-1.484-1.484-5.019,5.005-1.236-1.231-3.087,3.082-3.168-3.168,4.094-4.084-4.094-4.089,3.168-3.163,3.087,3.082,1.236-1.231,5.015,5,1.489-1.489,1.56,1.551,4.17-4.156,2.052,2.052-2.443,2.438ZM100.492,12.052l-.401-.401-1.474,1.469,1.474,1.474.401-.401-1.069-1.074,1.069-1.069ZM50.48,13.121l-1.479,1.474-.401-.401,1.074-1.074-1.074-1.069.401-.401,1.479,1.469ZM4.227,17.267L0,13.035l4.227-4.227,4.232,4.227-4.232,4.232ZM4.227,13.037h45.445M140.531,13.035l4.232-4.227,4.227,4.227-4.227,4.232-4.232-4.232ZM144.763,13.037h-45.445" fill="#85754e"/>
  </g>
</svg>