<?xml version="1.0" encoding="UTF-8"?>
<svg id="b" data-name="Layer 2" xmlns="http://www.w3.org/2000/svg" width="404.907" height="202.459" viewBox="0 0 404.907 202.459">
  <g id="c" data-name="Layer 1">
    <path d="M176.481,158.704c-.506,0-.747-.251-1.003-.497,0-.251,0-.497.255-.497.492,0,.747,0,.989.246,0,.251-.242.747-.242.747M174.74,134.345c0-.251-.255-.497-.255-.497,0-.251.255-.497.255-.747.246.251.246.497.492.747-.246,0-.246.246-.492.497M174.239,142.299c-.246,0-.748-.251-.748-.994.246-.251,0-.501.501-.501,0,0,.994,0,.994.747-.246.497-.501.747-.747.747M173.737,177.346c-.994,0-1.486-.497-1.486-1.491.251-.497.492-.998.998-.998,1.491,0,1.737.501,1.737,1.495s-.501.994-1.249.994M170.515,147.518c-.506,0-1.249-.251-1.987-.497-.752,0-.752-.497-.752-1.24,0-.501,0-1.244.752-1.244.246,0,.246.246.492.246.989,0,1.495-1.24,2.484-1.987.492.994,1.24,1.987,1.24,2.986,0,.989-1.24,1.737-2.229,1.737M171.75,171.877l-.246.246c-.242,0-.497-.994-.497-1.24s.255-.497.497-.743c0,.246.492.246.492,1.24,0,.251,0,.497-.246.497M166.536,110.233c-.497,0-.998-.246-.998-.994,0-.994.743-.994,1.249-.994.743,0,1.491.497,1.491.994,0,.994-.748.994-1.741.994M165.287,113.962c-.497,0-.739-.497-.739-.994,0-.743.242-1.244.739-1.244h.251c.743,0,.743.743.743,1.491,0,.501-.242.747-.994.747M165.045,139.068c-.747,0-1.992.747-2.739.747-.743,0-.994-.497-.994-1.244,0-1.49,2.242,0,3.236-1.49,0-.748-1.495-.497-1.495-1.491,0-.501.748-.747,1.495-.747,1.235,0,1.732.497,1.732,2.735,0,.747-.242,1.491-1.235,1.491M159.826,134.842c0,.994.246,1.49,1.486,1.49.747-.246.747-.743.747-.994,0-2.484-.251-3.729-2.233-3.729,1.235,0-6.217-.246-6.714,2.238,0,.994,1.741,1.741,3.728,1.741.994-.251,1.992-1.495,2.48-1.495,0,0,.251.251.506.748M137.947,116.697c0-6.463,3.236-12.927,3.236-19.887,0-1.491-.501-2.981-.501-4.225,0-3.729,3.232-9.198,7.708-9.198,2.981,0,7.954,11.436,7.954,17.403v.994c0,2.73,1.24,5.223,1.24,7.708,0,1.737-.246,3.478-.246,4.968,0,1.244.246,2.484.246,3.729,0,7.211-7.708,9.449-13.419,9.946-5.47,0-6.217-2.489-6.217-11.436M140.436,70.464c.747,0,1.486,0,1.486.747,0,.743-.739.989-1.24.989-.747,0-1.495,0-1.495-.989.255-.501.748-.747,1.249-.747M161.312,128.133c.497,0,.747.246.747.743,0,.251,0,.501-.251.747-.747,0-.989-.747-.989-.994,0-.251.242-.251.492-.497M162.561,100.789s-.255,0-.501-.251l.246-.246q.255,0,.255.497M162.561,81.399c.743,0,.994.747.994,1.49,0,.748,0,1.741-.994,1.741-.752,0-.998-.497-.998-.994v-.497c0-.747-.251-1.741.998-1.741M165.537,91.34c.501-.246.998-.743,1.741-1.24.251.743.251,1.24.251,1.49,0,1.244-.994,2.238-1.746,2.238-.497,0-1.235-.501-1.235-.994,0-.497.497-.994.989-1.495M170.756,136.83c.506,0,.994-.497,1.24-.497.255,0,.506,0,.506.497,0,.251,0,.501-.251.501,0,0-1.244-.251-1.495-.501v.994c0,.747-.242.998-.747.998-.488,0-1.235,0-1.983-.251.251-1.49,1.495-1.49,2.73-1.741M134.72,144.537c-.251-.251-.251-.497-.251-.747.251,0,.747,0,.747.251-.251.246-.497.246-.497.497M132.728,78.915h-.501c-.488-.246-.734-.246-.734-.497,0-1.244,2.726-1.987,2.977-1.987s.497.492.497.994c-.747.743-1.244,1.491-2.238,1.491M133.968,129.874c-.246.743-.743.743-.994.743h-3.227c-1.244-.251-1.244-.994-1.244-1.741,0-1.491.501-1.741,2.238-1.741.251,0,3.227.998,3.227,2.243v.497ZM124.774,160.942c-.743,0-.994-.747-1.24-1.741,0-.994.246-1.741,1.49-1.741.497,0,1.992-.246,1.992.748v.246c0,1.495.242,2.489-2.243,2.489M123.781,195.492h-1.244c-.246,0-.743.251-.998.251-.242,0-.492-.251-.492-.998.251-.497.492-.743,1.244-.743h1.491c.497,0,.994,0,.994.743,0,.747-.497.747-.994.747M129.998,95.82c.743,0,1.495.246,1.495,1.235,0,.747-.26,1.495-1.249,1.495-.747-.246-1.741-.994-1.741-1.741,0-.743.501-.989,1.495-.989M132.482,72.451h.246c.994,0,1.741.998,2.238,1.741-.497.994-1.244,1.491-2.238,1.491s-1.737-.497-1.737-1.244c0-.989.501-1.987,1.491-1.987M116.821,194.002c-.497,0-.748,0-.748-.497,0-1.244.501-1.244,1.495-1.244.492,0,.747.497.994.994-.501.747-.994.747-1.741.747M188.656,188.532c-2.238-3.979-3.482-7.954-3.482-12.425,0-2.489.747-5.223.747-7.708,0-5.716-4.476-10.939-4.476-16.901,0-1.741.747-3.482.747-4.973,0-2.735-1.741-6.956-1.741-10.438v-5.967c0-9.198-2.484-16.655-5.219-25.106-.994-2.981-.246-8.455-1.983-11.432-.255-.501-.255-1.495-.255-1.992.255-.994.497-1.987.497-2.981,0-3.482-1.24-7.211-1.24-9.449,0-5.465,9.44-6.709,9.44-12.179,0-2.484-2.233-3.729-4.718-3.729-2.233,0-4.977,1.244-7.453,1.244-1.992,0-3.737-.743-5.479-.743-4.471,0-8.692,2.234-12.918,2.234-4.727,0-9.695-1.741-14.413-1.741-4.23,0-8.46-.994-12.681-.994-3.232,0-7.457.994-7.457,2.986,0,3.482,5.465,4.718,5.465,7.211.251,2.981.994,5.465.994,8.2,0,3.728-1.24,6.709-1.24,10.438,0,1.24.246,2.735.246,4.225,0,4.225-2.981,8.451-2.981,12.43,0,1.741.492,3.232.492,4.973,0,3.478-1.491,6.709-1.491,9.941,0,1.741.501,3.729.501,5.47,0,4.968-2.735,9.444-2.735,15.411.246.743.246,1.737.246,2.484,0,1.737-.246,3.478-.994,5.219-5.967,12.927,0,37.536-12.927,42.007-2.981.998-3.482,2.735-3.482,5.47,0,1.495.255,2.484,1.495,2.484,3.729,0,7.954-1.49,12.179-1.49,2.489,0,4.722.501,6.965.501,3.227,0,6.459-.251,9.695-.251h3.478c1.987,0,3.482-1.495,3.482-3.232,0-3.482-5.966-3.232-5.966-10.192,0-10.192,1.235-31.318,5.711-35.795,4.225-5.219,14.668-7.457,21.131-7.457,4.968,0,6.213,7.457,6.213,11.933,0,.994-.492,1.987-.492,2.735,0,9.444,4.467,18.889,4.467,29.081,0,5.219-6.956,5.219-6.956,9.194s4.973,3.236,7.457,3.236c2.238,0,4.467-.747,6.71-.747,6.213,0,14.914,1.495,21.874,1.495,1.491,0,2.735-2.243,2.735-3.729,0-.747-.246-1.495-.743-1.992-3.236-2.981-7.211-2.735-9.449-6.96M285.412,20.719q0,.497-.251.747c-1.24,0-1.486,0-1.486-.747,0-.743.994-.743,1.737-.743v.743ZM283.675,37.62c-.501-.246-.501-.492-.501-.743.501-.747.994-.994,1.24-.994,0,.743.255.743.255,1.244-.255.246-.501.492-.994.492M279.45,27.93h-2.489c2.238-.994,3.236-1.741,3.236-2.489s-.506-1.486-1.495-2.735c2.73,0,5.219.998,4.973,3.482-.501,1.491-1.741,1.741-4.225,1.741M281.683,45.077c-.747-.743-.747-.246-.747-2.233.251-.251.497-.497.998-.497.994,0,.994.994.994,1.987,0,.246-.255.743-1.244.743M279.692,34.143c-.492,0-1.491-1.491-1.491-1.741,0-1.24.251-2.233,1.491-2.233,1.495,0,1.495,1.491,1.495,1.491,0,.497-.497.994-.497,2.233.246.497.246.747.743,1.244-.994,0-1.235-.497-1.741-.994M276.214,38.869c0-.251.246,2.48,2.489,2.48,0-1.987-.994-4.472-1.741-6.213-.501,1.49-.747,2.238-.747,3.733M276.711,53.533c0,.246-.497.497-.743.497-.501,0-.748-.251-.748-.497,0-.998,1.24-.998,1.24-.998.251,0,.501,0,.501.501q0,.246-.251.497M274.974,65.466c.246,0,.492-.255.747-.255.246,0,.492.255.492.501-.246.497-.492.747-.492.747-.747,0-.747-.994-.747-.994M276.711,73.169c-.743,4.471-1.737,3.729-2.238,3.729-2.484,0-2.977-.994-3.729-.994-2.238,0-.242,4.472-2.238,4.472-1.486,0-1.486-1.24-1.486-2.484,0-4.722,4.968-8.701,6.705-8.701,1.495,0,2.985,1.987,2.985,3.482v.497ZM272.485,84.35c-.246,0-.497-.246-.497-.743s.497-.497.989-.497c.255,0,.747,0,.747.743,0,.251-.747.497-1.24.497M272.736,87.089c-.747,0-1.24-.251-1.741-.497-.747,0-1.49.743-1.741.743-.748,0-1.24-.497-1.24-1.491,0-.497,1.24-.747,1.491-.747,0,0,.251.251.497.251.743,1.244,2.238.497,3.478,1.491-.246,0-.501.251-.743.251M266.272,90.567c-.246.251-.501.497-.752.743,0-.743-.743-1.987-.492-2.233.743-.748.743-.994,1.741-.994.251,0,.251.497.251.747,0,.739-.251,1.24-.747,1.737M264.536,117.66c-1.495,0-1.741-1.737-1.741-2.981-.501-.501,1.491-.994,1.983-1.244q.251.743.251,1.244c-.251.497-.743.994-.743,1.49.251.501.251.994.251,1.491M257.074,131.581c.994-.743,1.732-1.24,2.243-1.24.989,0,.743.994,2.48,2.735-1.737,0-3.227-1.495-4.722-1.495M259.066,148.482c-.26,0-.748,0-.748-.748.251-.246.488-.246.748-.246l.251.246c-.251.251-.251.501-.251.748M257.33,138.044c-.752.747-2.247,1.741-3.241,2.233,0-.492-.242-.994-.242-1.486,0-.998,1.235-2.739,1.741-2.739,0,.251,1.486.501,1.983,1.244,0,.497,0,.748-.242.748M254.34,156.686c0,.251-.251.497-.251.743,0,1.244-.743,2.735-1.24,2.735s-.989-.497-.989-.989c0-.501.492-1.244.492-1.746,0-1.24-2.73-1.24-4.472-1.491,0,.747.242,1.244.242,1.741-.492,1.987-.739,5.219-1.987,5.219-.242-.497-1.235,0-1.235-.994.246,0,.246-.994.246-1.24-.246-1.746-2.981-3.236-2.981-3.979,0-.747,7.699-3.979,7.457-3.979,7.202,3.979,4.718,2.238,4.718,3.979M250.365,164.887c-.501,0-.994,0-.994-.492,0-.998.994-1.244,1.486-1.244,0,0,.255,0,.747.246-.251,0,.497,1.992-1.24,1.49M253.1,172.348c0,.743-.497.246-.497.994.246.497.246.747.246,1.244,0,.994-.747,2.484-.989,3.478,0-1.244-2.238-.747-3.232-1.495,0-.989,1.983-.989,2.484-2.73,0-.251-.255-.497-.255-.998.255,0,.255.251.255-.246.492,0,.989.246,1.491.246.743-.743.743-2.233.743-3.232,0,.501.251.747.251,1.244s-.251.994-.497,1.495M248.87,181.542c-.989,0-1.737,0-1.737-1.737,0-.251.251-.501.497-.501.743,0,2.234.501,2.234,1.495,0,.743-.492.497-.994.743M246.641,188.999c-.506,0-.748-.246-.748-.743.242,0,.748-.747.989-.501,0,0,.251,0,.251.251h.497q.251,0,.251.497c-.251,0-.251.497-1.24.497M246.386,195.462c-.251,0-.743-.251-.743-.748.251-.246.492-.246.743-.246.255,0,.497.246.497.497-.497,0-.242.743-.497.497M246.641,167.621c-1.253,0-2.493-.246-3.984-.497,1.491,0,3.478-1.24,4.225-1.24.251.246.251.492.251.747,0,.492-.251.989-.492.989M247.881,172.097c0,.251-.998.994-.998.994-.242,0-.242-.251-.242-.251,0-1.491,1.482-.994.989-.994,0,0,.251,0,.251.251M260.306,125.363c.246,0,.501.501.501.747,0,.251-.255.251-.747.251-.246,0-.246-.251-.246-.743q.246,0,.492-.255M274.974,44.334c0-.251.246-.747.492-.747.501,0,.994.994.994,1.244,0,.747-.492,1.244-1.24,1.244,0-.251-.497-.497-.497-.998,0-.246,0-.497.251-.743M276.711,19.228q0-.246.747-.246c.497,0,.743.743.743,1.491,0,.497-.246.743-.492.743-.747,0-1.249-.497-1.249-1.491,0-.246,0-.497.251-.497M280.197,19.228c.989,0,.739,1.244.739.994-.497,0-.246.251-.739.251,0-.251-.255-.748-.255-.994q0-.251.255-.251M240.674,159.421q0,.246-.251.246c-.255.251-.747-1.24-2.238-2.73,0-.747.492-1.244.994-1.244.246,0,.497.246.497.497,0,.246-.251,1.24-.497,1.491,1.244.747,1.495.994,1.737,1.24,0,0,0,.255-.242.501M238.432,176.323c-.743-.246-.998-2.234-1.746-3.975,2.242.994,3.241.994,3.241,1.741,0,.497-.501,1.24-1.495,2.234M237.192,179.554c-.994,0-.994-.747-.994-.994,0-.497.488-.748.994-.748.748,0,1.24.251,1.24.748s-.743.994-1.24.994M237.434,187.754c-.242.501-.994.501-1.482.501-.748,0-1.003-.501-1.003-.994,0-.994,1.249-1.491,1.737-1.491.506,0,1.003.743,1.003,1.491q0,.246-.255.492M234.211,183.283c0-.246.492-.747.492-.497.246,0,.501.497.501.747,0,.246-.255.492-.255.492-.246-.246-.492-.246-.739-.743M233.459,172.84c-.246-.246-.497-.492-.747-.743,0-.748.747-.748.998-.748s.994.497,1.24,1.244c0,.497-.739.497-.492.497-.497,0-.747,0-.998-.251M230.232,167.872c1.244,0,2.73-1.741,4.225-1.741,1.235,0,2.489,1.244,3.482,1.244-.251.497,1.737-.497,1.737-2.735,0-.501-.251-.994-.497-1.244-5.219,0-3.728-5.716-4.968-5.716-.251,0-.752.251-1.249.251-.492-.501-.251-3.232-2.234-3.232-.994,0,0,1.737-1.244,2.981-.246,1.24-.246-1.491-1.741-1.491-.747.497-.747.747-.747,1.24-1.486-.994,2.985,2.985,2.985,7.708-.246.748-.246,1.24-.246,1.741,0,.246.246.743.497.994M224.762,143.012c0-.497,2.484-.743,1.741-1.244.242-.492,0-1.491.743-1.983,1.244.748.251,2.73,1.992,2.73-.251.747-3.984,1.741-3.729,1.741-.501-.497-.994-1.244-.747-1.244M223.522,117.163c-1.249,0-.752-2.985-.752-2.985,0-.492.251-.743.497-1.24.747.747,1.249,3.232,1.249,3.482,0,.743-1.249.743-.994.743M221.781,132.825c-1.249,0-.998-1.491-.998-1.244,0-.246.251-.743.743-.743,1.495,0,1.495,1.24,1.495,1.24-.251.497-.747.747-1.24.747M220.783,122.879c2.175,0,2.233,2.35,2.108,3.634-.497.564-.201.595-1.11.595-.747-.501-2.238-2.238-2.238-3.236,0-.246.743-.994,1.24-.994M218.048,116.42c0-1.244-.497-2.985,1.244-2.985,1.24,0,.747,1.992.747,1.992,0,.994,0,1.987-1.495,1.737-.497,0-.497-.492-.497-.743M213.827,105.481c.43-.868,3.147-.98,3.487-.994,2.471.013,1.728,3.232,3.218,4.471,0,.501,0,.998-.246,1.746-1.491-1.244-3.478-2.986-4.718-2.986-1.003-.743-1.992.492-1.741-2.238M212.829,79.632s-.251,0-.251-.251c0-.747.998-.497,1.249-.497,1.486,0,1.741,1.737,2.229,2.489-1.737-.501-3.227-.501-3.227-1.741M212.829,90.567c-.738,0-.251-.747-.738-.747,0,0,.242-.251.488-.251l.501.501c0,.246-.251.246-.251.497M210.591,78.634l-.246.251c-.251,0-.497-.747-.497-.747,0-.743.246-1.24.994-1.24.739,0,.994.497.994.994-.255.497-.497.743-1.244.743M211.835,59.495c.497.994.743,1.495.743,1.992s-1.491,2.233-2.981,2.233c.747-1.987.994-3.232,2.238-4.225M208.854,21.466l-.251-.251c-1.737,0-1.992-2.233-2.238-2.73.246-.251.501-.251.748-.251.998,0,2.233.497,2.735,1.49,0,.497-.501,1.741-.994,1.741M208.353,33.892c-2.233-.989-1.741-1.983-1.741-2.484,0-.497.501-.994.752-.994.747.497,1.24.994,1.24,1.987-.251.501-.251.994-.251,1.491M208.353,40.355c-.242.501-.738.251-1.486.251-.501,0-.994-.747-.994-1.244,0-.743.492-2.234.492-2.735,1.987,2.243,2.238,2.735,2.238,3.232,0,0-.251.251-.251.497M205.618,49.553q0,.251-.492.251c-.501,0-.251,0-.748-.501.748-.743.497-.497.748-.497.246,0,.492.251.747.497q0,.251-.255.251M203.882,17.984c-.497.747-1.486.747-1.486,1.244v1.741s-1.003.994-.752.497h-2.238c0,.747.251.251.251,1.495-.747,0,.251.492-1.244.492-.994-.994-1.495-.747-2.489-3.232,1.495,0,1.741,1.495,2.985,1.495s.747-4.23,4.225-4.23c.251,0,.497.251.998.251l-.251.246ZM201.894,34.389v.748c-.747.747-.501,1.49-1.495,1.49l-.246-.246c-.246,0-.497-.251-.497-.747,0-1.741,1.737-1.741,2.238-1.741v.497ZM201.393,41.349c-.246,0-.497.255-.497.255-.242,0-.497-.747-.497-.747,0-1.746.747-.501.747-.998.246.251.497.747.497.998,0,0-.251.246-.251.492M215.313,75.402c-.994-.743-3.223-.989-3.733-1.486-1.235,0-.989-2.242-.989-2.985,0-.497.497-1.244,1.244-1.244,2.238,0,3.478,4.476,3.478,5.716M217.054,84.851c0,.743-.492.994-.998.994-1.235-.497-1.491-.994-1.491-1.741.501-.497.255-.743,1.249-.743.242,0,1.24.743,1.24,1.491M216.307,91.064c.255,0-.739-.497-.492-.497,0-.251.242-.497.994-.747.492,0,.743.497.994.497,0,.994-1.24.748-1.495.748M218.299,98.521c0,.747-1.244,1.741-1.992,1.741-.994,0-1.741-1.244-1.486-1.741.492-.994,1.741-.743,2.48-.994.748,0,.998.497.998.994M227.497,136.303c.497-.497.497-1.244.497-1.987,0-1.491-.497-2.981-.497-4.476,1.987,2.238,1.24,4.476,2.238,6.213,0,.501-.497,1.495-1.741,1.244-.251,0-.747-.492-.747-.743,0,0,.251,0,.251-.251M230.473,146.992c-.242.251-.242.994-.989.743-.994,0-.994-.743-.994-1.486.497,0,.246-.998.497-.998.747,0,1.486.998,1.486,1.741M234.703,152.21c-.492,1.741-1.992,1.491-1.992,1.491,0,0-4.472-.994-4.718-3.232.994,0,2.48,0,3.482.501.738,0,1.737.492,3.227,1.24M306.789,17.738c0-.747-.255-1.49-.998-2.238-1.992-2.735-5.219-2.985-8.446-2.985h-2.981c-1.741,0-3.482-.246-5.219-.246-5.47,0-11.19,1.24-16.66,1.24-1.491,0-2.981-.743-4.225-.743-2.739,0-5.219.743-7.954.743,2.238,9.946,11.432,5.223,11.432,12.927,0,5.474-2.73,10.442-2.73,15.912,0,.743.246,1.737.246,2.484,0,4.225-5.962,16.655-5.962,19.139,0,7.457-3.733,14.167-3.733,21.127v1.992c0,5.962-4.964,10.935-4.964,17.148,0,1.741.488,3.482.488,5.223,0,3.478-1.235,6.463-2.233,9.941-1.495,5.219-.989,10.939-3.733,15.657-1.486,2.735-2.475,14.668-7.202,14.668-5.716,0-6.71-18.146-7.211-19.636-3.478-8.205-6.213-18.396-6.213-26.847v-.994c0-4.722-4.225-11.933-4.476-18.396-.492-7.457-5.47-14.166-5.966-21.87-.748-8.205-.748-16.405-3.729-24.112-.246-.497-.246-1.244-.246-1.741.246-.743.246-1.491.246-2.238,0-2.233-1.24-4.471-1.24-6.709,0-7.703,11.186-4.968,11.186-11.933,0-1.987-1.495-3.227-4.476-3.478-2.735,0-5.223,1.49-7.457,1.49-5.967,0-14.668-2.233-22.367-2.233-1.495,0-2.739,0-3.984.246-1.737,0-2.48-.994-3.724-.994-2.243,0-4.727,2.233-4.727,5.219,0,2.238.747,3.232,1.491,3.232.501,0,1.249-.246,1.741-.246,5.962,0,12.43,7.452,12.43,13.67v1.987c0,2.985,5.967,18.893,5.967,19.39v.497c0,6.213,2.735,11.181,3.729,17.644.743,9.941,5.223,21.377,5.223,29.582v3.232c0,7.457,4.467,12.425,5.465,19.636.989,9.695,5.966,18.392,7.457,27.841.246,6.463.994,15.16,3.975,19.882,3.232,5.47,3.482,26.104,9.203,27.344,4.467.998,8.943,1.741,13.419,1.741,7.453,0,8.701-13.177,9.941-20.63.747-4.722,3.478-9.449,3.478-14.171,0-.994-.242-1.992-.242-2.981,0-.497.242-.994.492-1.741,5.47-7.954,2.489-19.641,6.714-29.577,3.724-9.198,3.724-19.641,7.708-28.834,2.234-4.973,1.987-12.681,3.97-18.146,4.476-12.43,4.722-26.095,9.453-38.279.989-2.238,1.983-4.722,1.983-7.211v-1.741c0-4.225,2.981-7.206,3.729-10.438,1.49-6.96,3.979-4.221,9.695-7.206,1.491-.497,2.238-1.49,2.238-2.238M357.254,189.251h-.497c-.497,0-.748-.255-.748-.998.251-.743.748-.743,1.244-.743.492,0,.994.246.994.994,0,.492-.501.748-.994.748M352.035,191.982c-.501-.251-.747-.251-.747-.492,0-.748.501-1.249.994-1.249.501,0,.989.251.989.748,0,.994-.747.501-1.235.994M350.294,187.259c0-.246.994-.497,1.24-.497.501,0,.748,0,.989.497,0,.251-.242.497-.488.747-.747,0-1.495,0-1.741-.747M346.811,191.731c-.747,0-1.491-.492-2.238-.743-.743,0-.743-.246-.743-.497,0-.179.389-.752.506-1.052,0,.018-.009.036-.009.058.501-.246.747-.246.994-.246,1.244,0,1.983.989,2.489,1.987-.251.251-.747.492-.998.492M342.586,187.259c0,.747.501,1.992,1.741,1.992.054,0,.045.058.018.134.072-.703.73-1.419.73-2.126,0-.743-.501-2.238-1.741-2.238-.747,0-.747,1.495-.747,2.238M340.599,188.996c-.501,0-.501-.492-.747-.989.246,0,.506-.251.747-.251.497,0,.497.251.497.747,0,.246-.251.492-.497.492M343.087,182.04h.492c.501,0,.747.251.747.748,0,.747,0,1.49-.994,1.49-.747,0-.747-.994-.747-1.49s0-.748.501-.748M338.115,182.788c-.497,0-.747-.246-.747-.497,0-.747.497-.747.989-.747.506,0,.752,0,.752.497,0,.748-.497.748-.994.748M333.142,184.525c-.497,0-.743-.246-.994-.497,0-.492,0-.994.994-1.24,0,.246.497.246.743.497,0,.492-.246.994-.743,1.24M327.672,119.9c.251,0,.501,0,.752.246-.251,0-.251.251-.501.251,0,0-.251-.251-.497-.251.246,0,.246-.246.246-.246M329.163,78.385c.251-.246.501-.747.994-.747.251,0,1.244.747,1.244,1.244,0,1.249-2.977.994-4.722,1.249.497-1.249,1.244-1.746,2.484-1.746M326.186,121.391l-.255-.246c.255-.251.501-.251.501-.251h.246q-.246.251-.492.497M324.19,119.9c-.748,0-1.486-.251-2.234-.251-.242,0-.497.251-.497.251-.492,0-.492-.497-.492-.994,0-.251.242-.497.492-.497,0,0,.255.246.497.497.748-.748,2.234-2.238,2.981-2.238s.994.497.994,1.24c0,2.238-.492,1.992-1.741,1.992M321.956,125.616c-.242-.747-.242-1.495-.242-2.238,0-.497,0-1.244.492-1.987.989,1.244,1.737,1.741,1.737,2.233,0,.497-.747.998-1.987,1.992M322.207,127.106s-.251,0-.251-.246c0-.251.251-.251.251-.497.251,0,.497.246.497.246-.246.251-.246.497-.497.497M322.207,130.835c.251-.251.251-.497.251-.743,0-1.244-1.49-1.495-2.238-1.495,0-.497.242-.994.242-1.49,0-.246-.242-.743-.989-.743s-1.244.743-1.244,1.24c0,1.244,1.244.994,1.992.994,0,.994-.246,1.244-.246,1.741s.246.743.994.994c.492,0,.989-.251,1.24-.497M322.207,141.277s0-.251-.251-.501c0,0,.251,0,.251-.246.251.246.251.497.251.497q0,.251-.251.251M321.715,162.153c-.747,0-.747-.743-.747-.994.242-.246.242-.497.492-.497.497,0,.998.251.998.497-.251.747-.251.994-.743.994M318.971,135.311l-1.24-1.992c0-.246.497-.246.994-.497,1.495.752,2.99.497,2.99,1.992,0,.497-.506,1.491-1.253,1.491-.488,0-.989-.497-1.491-.994M320.219,173.59c-.246.497-.747,1.244-1.495,1.244-.743-.251-1.495-.501-1.495-1.495,0-1.244.998-.989,1.741-.989.501,0,1.249.246,1.249.989v.251ZM318.971,185.272c-.497,0-.743-.251-.743-.994,0-.251.246-.251.497-.501.497,0,.747.251.747.748,0,.251,0,.497-.501.747M316.236,163.649c.255-.251.255-.501.501-.501,0,0,.747,0,.747.501,0,.246,0,.743-.747.743-.246,0-.501-.251-.501-.743M314.002,190.988c-.251.251-.743.743-.994.743s-.251-.242-.497-.492c0-.497,1.24-1.244,1.491-1.244.747,0,1.49.246,2.233.246-.488.998-1.486.748-2.233.748M314.75,130.338c.251-.246.743-.246.998-.246.488,0,1.737.246,1.737.743,0,.748-2.735.994-3.232,2.484-.251-.743-.501-1.491-.501-1.987s.251-.748.998-.994M314.002,119.403c.747,1.24,2.735.743,2.735,1.987,0,.497,0,1.491-.747,1.491-1.495,0-2.238-.994-2.238-1.987,0-.497,0-.994.251-1.491M314.75,76.648c.492,0,.998,0,1.24.747,0,.497-.497.743-.989.989-.506,0-.998,0-1.249-.747,0-.492.251-.989.998-.989M317.731,96.535c-.246.497.251,1.491-.747,1.491-.747,0-1.491-.747-1.491-1.491,0-.747.497-1.495,1.491-1.495.747,0,.747.747.747,1.495M315.99,117.662c.246,0,.501.246.501.748-.255,0-.255.497-.501.497-.242,0-.497-.251-.497-.497,0-.251,0-.748.497-.748M315.493,113.687c.743,0,.743.743.743.989,0,.747-.743.998-1.235,1.244-.506,0-.747-.246-.747-.747,0-1.244.242-1.486,1.24-1.486M314.253,111.199c.242.251.242.497.497.748-.255.246-.255.492-.497.492,0-.246-.251-.246-.251-.492,0-.251.251-.497.251-.748M315.001,107.22c.492,0,.492,1.741.492,1.495,0,.246,0,.497-.492.497h-.251c-.255,0-.497-.251-.497-.747s0-1.244.747-1.244M314.253,91.066c0-.251-.251-.497-.251-.497,0-.501.251-.748.251-.998q.242.251.497.497c0,.501-.255.747-.497.998M318.971,107.721c-.497-.251-.743-.501-.743-.994,0-.251.497-.501.743-.501.251,0,.501.501.501.501,0,.492,0,.743-.501.994M319.472,114.927c0,.747-.251.994-.747.994-.743,0-1.495,0-1.495-.497v-.497c.255-.497.501-1.24.998-1.24.994,0,1.244.492,1.244,1.24M318.971,111.946c-.497,0-.743-.497-.743-.748,0-.743.246-.994.743-.994.501.251.501.497.501.994,0,.251,0,.748-.501.748M314.002,138.292c0-.246.251-.743.998-.743.242,0,.989.989.989,1.244,0,.497-.497.743-.748.989-.989,0-1.24-.492-1.24-1.491M315.493,156.688c-.743-.251-1.49-1.741-1.49-1.992,0-.246.492-1.244.998-1.244,2.73,0,4.221,3.236,4.221,4.727,0,.743-.251,1.491-.497,2.484-.251-2.238-1.741-3.232-3.232-3.975M314.002,159.669c0,.251,0,.497.251.497.497,0,.497-.497.497-.994,0-.251,0-.497-.255-.748,0,0-.492.251-.492.497v.747ZM314.495,186.266v.251l-.242.246s-.251,0-.251-.246c0,0,.251-.251.492-.251M314.253,179.306c-.251-.246-.251-.743-.251-1.24.251-.747.492-.998,1.24-.998.251.251.506.497.506.747,0,.748-.506,1.244-1.495,1.491M318.971,101.258c1.249,0,3.487,2.484,3.487,3.478,0,.501-.743.998-1.49.998s-1.495-1.741-2.986-1.741h-.251c-.994,0-1.495-.251-1.495-1.244,0-1.741,1.249-1.49,2.735-1.49M320.219,97.775c0,.251-.246.251-.501.251-.497,0-.497-.251-.497-.747,0-.492.251-.492.752-.492,0,0,.246.739.246.989M318.228,91.562c0-.497.743-.747,1.244-.747.501.251.989.497.989.994-.242.748-.488.998-1.24.998-.497-.251-.994-.251-.994-.748v-.497ZM320.712,85.35c.497.246.747.246.747.743s-.492.747-.998.747c-.242,0-.488-.251-.488-.747,0-.246.488-.497.739-.743M321.459,80.623c.497,0,.747.251.998,1.244,0,0-.501.246-.998.246-.251,0-.251-.246-.492-.492,0-.501.242-.747.492-.998M328.666,73.417c0-.246.255-.497.497-.497.752,0,.752.497.752.743-.251.501-.251.747-.501.747s-.747-.246-.747-.747v-.246ZM328.424,114.43c.242-.251.497-.501.739-.501.251,0,.752.501.752,1.244v.747c0,.748.989.748,2.484.748,1.486,0,2.48-1.741,3.227-1.741.497,0,1.244.497,1.244.994,0,2.735-3.728,3.232-5.72,3.232-1.486,0-3.478-.497-3.478-2.73,0-.748.251-1.495.752-1.992M311.021,68.695c-.497.251-.743.251-.998.251-.927,0-1.571-1.522-1.844-1.987.586.022,2.882.152,3.093.989,0,.251-.251.497-.251.747M333.639,75.404s.246-.246.501-.246c.251,0,.251.246.488.246-.237.251-.237.497-.488.497-.255,0-.501,0-.501-.246v-.251ZM334.391,72.172c.488-.246.989-.246,1.486-.246.994,0,1.987.246,3.232.743-.994.748-1.987.994-2.735.994-.994,0-2.489-.246-2.489-.743,0-.251.255-.501.506-.747M337.618,70.436c.246,0,.497.246.497.246,0,.246-.251.246-.251.246-.246,0-.497,0-.497-.246l.251-.246ZM339.35,77.396v.497c0,.246-.242.246-.488.492-.506,0-.998,0-.998-.989.251-.251.492-.501.998-.501.246,0,.488.251.488.501M342.34,70.928h.492c.501,0,.748,0,.998.501,0,.743-.743.497-1.244.497-.246,0-.492,0-.492-.251,0-.246.246-.747.246-.747M363.212,177.318c-3.975-1.244-9.686-2.238-13.415-2.238-3.232,0-6.965,1.244-10.447,1.491-14.167,0-11.177-18.146-11.678-30.074,0-1.491.752-3.232.752-4.727,0-1.486-.752-2.977-.752-4.472,0-2.238.501-4.225.501-6.463v-1.987c0-1.987,1.491-3.232,2.977-3.232.998,0,2.243.497,2.99.497,3.478,0,6.217-2.489,9.691-2.489,1.746,0,3.728.747,5.219.747,7.461,0,11.436-4.722,11.436-9.198,0-7.954-7.215-11.181-13.674-11.181-1.983,0-3.724.497-5.716.497-2.484,0-4.973-1.244-7.954-1.244h-2.986c-1.732,0-2.484-.743-2.484-2.238,0-1.244.501-2.735.501-4.221v-2.739c0-5.219-.501-9.194,3.478-9.194,1.491,0,2.977.246,4.225.246,4.221,0,7.954-2.238,11.682-2.238,1.741,0,3.232.747,4.964.747,8.213,0,18.155-.747,18.155-9.198,0-9.198-10.192-12.43-17.407-12.43-2.976,0-6.208,3.729-9.44,3.729-3.733,0-7.457-2.981-9.946-2.981-.743,0-1.737.251-2.484.251-3.478,0-7.211-2.238-11.427-2.238-2.744,0-5.479.747-8.46.747-1.737,0-3.478-.747-5.219-.747-3.724,0-6.714,2.735-6.714,6.213,0,.994.255,3.232,1.491,3.232,3.487,0,7.215,5.47,7.215,6.463,0,1.244-.251,2.233-.251,3.482,0,2.233.251,4.221.251,6.459,0,2.489-1.244,4.722-1.244,7.211,0,3.975,1.741,7.954,1.741,12.179,0,5.219-.497,10.443-.497,15.662,0,4.471.497,8.697.497,12.922,0,4.727-.998,9.198-.998,13.67,0,6.217,1.491,12.68,1.491,18.642,0,2.489-1.24,4.727-1.24,7.211,0,2.981.747,6.217.747,8.947,0,5.962-7.461,6.96-7.461,11.185,0,2.238,1.249,4.471,3.979,4.471,4.722,0,10.689-2.233,13.92-2.233,3.482,0,6.709.994,10.192.994,3.232,0,6.709-1.24,9.937-1.24,3.737,0,7.215,1.741,10.698,1.741s6.71-1.992,9.44-1.992c.998,0,2.489.497,3.478.497,4.731,0,8.205-3.979,8.205-7.708,0-5.215-1.987-9.941-7.958-11.432M97.42,15.478h-.712c0,.479,0,.953.479.953,0-.237.233-.474.233-.953M84.086,25.724h-1.195c-.242.949,1.67.712,1.195,0M81.226,29.058c.716-.242.474.712,1.423.474.479-.953-1.423-.953-1.423-.474M82.175,25.961c-.475-.237-1.907,0-2.14.475.712.716,1.428,0,2.14-.475M73.841,58.591c-.953-.237-1.67.958-1.191,1.432.237-.475,1.191-.716,1.191-1.432M71.459,56.21c1.428,0,1.902-.949,1.669-2.381h-1.195c-.242.716-.242,1.665-.474,2.381M71.459,51.926c-.242.949-.958,1.665-1.911,1.902,0-1.191,1.195-.712,1.195-1.902h.716ZM70.269,60.498c-.721.237-1.191.479-1.432.953.242.237.712.474,1.191.237-.237-.475.475-.475.242-1.191M68.836,59.549c.712,0,.712-.716,1.432-.716,0-.479-.242-.716-.479-.716-.242.716-1.191.237-.953,1.432M69.315,67.646c-.716,0-1.195,0-1.195.474.479,0,.479.712,1.195.479v-.953ZM68.836,73.836c-.237.237-1.191-.237-1.191.237.716,0,.716.716,1.191.716v-.953ZM66.697,66.93c-.242.716-.242,1.669-.479,2.618.953,0,1.191-2.381.479-2.618M66.218,52.401c.237.474,1.428.474,1.902.716.479-1.191-1.423-1.67-1.902-.716M65.981,57.163c0-1.191,1.428-.716,1.428-1.902.474.474,1.191.712,1.907.949v1.191c-.237.479-1.432,0-1.669.479.237.712.716,2.144.237,2.618-1.186-.237-.474-1.907-.474-2.618.237-.716-1.191-.242-1.428-.716M67.409,60.977c-.237.949-1.191,1.191-1.907,1.428v1.432c.953-.242,2.618-2.148,1.907-2.86M65.502,58.354c-.716.716,0,1.428.716,1.428.237-.949-.475-1.191-.716-1.428M65.743,65.502c-.479,0-1.432-.479-1.432.237.242.237,1.432.237,1.432-.237M65.032,179.591c-.721-.237-.958.237-.721.716.474,0,.953-.479.721-.716M64.311,57.163c.721-.237.242.716.474,1.191h-.949c-.242-.716.237-.716.475-1.191M62.642,55.019c1.195-.237,3.102.242,3.102-1.191-.242-.712-1.432-.237-1.191-1.191,0-.712,1.191-.237,1.191-.953-.479,0-.479-.716-.712-.953-.721,0-1.195.237-1.674.474,0,.721.716.721.716,1.669-.953.242-1.191,1.432-1.432,2.144M62.642,175.307c-.712,0-1.191.949-.474,1.186.237-.474.716-.474.474-1.186M62.883,85.031c0-.716,0-1.428-.479-2.144,0,.479-.237.716-.712.716.237.953.712,1.191,1.191,1.428M63.358,74.79c0-1.428-1.907-.475-1.665.716.949,0,.712-.953,1.665-.716M61.93,165.778c0-.716,0-1.191-.712-1.191,0,.712,0,1.191.712,1.191M61.218,56.926c.474.475,1.186.475,1.423.712,0-.712.716-.712.716-1.428-.474,0-.237-.716-.716-.716,0,.953-1.423.479-1.423,1.432M62.883,72.171c0-1.195,1.902-.242,2.148-1.195-1.674,0-1.911-1.186-4.051-.949.237,1.191,1.423,1.428,1.902,2.144M60.981,61.451h.712c0-.475,0-.716-.474-.953,0,.479-.237.479-.237.953M61.93,99.323c0-.712-.237-.953-.949-.712-.242.712.47.712.949.712M62.404,94.56h-.953c-.233.949-1.191,2.856-.47,3.335.237-1.195,2.377-1.432,1.423-3.335M60.502,82.887c.479-.237.949-.953,0-.953-.242.242-.716.953,0,.953M60.739,157.202c.242.949-.712.716-.712,1.432.953.474,1.423-.953.712-1.432M64.311,63.595c-.953.242-.953-.716-1.67-.953-.474.475.242.953.242,1.67-.479.233-.716.474-1.191.712,0,.953,1.191.716,1.665.953-.237.712-1.191.475-1.428.953,0,.953.237,1.902-.237,2.381-1.907-.479,0-2.86-1.665-3.809.953,0,1.191-.958,1.665-1.432,0-.474-.242-.474-.953-.474.712-.716,1.665-1.191,2.381-1.907.716.237.953,1.191,1.191,1.907M61.93,150.77c.474-.953-.949-.237-.712-.953h-1.191c0,.479-.242.716-.242,1.432.716-.716,1.432-.716,2.144-.479M59.786,131.715c.716-.237.242.716.953.479.242-.479.479-.953-.237-1.191,0,.474-.716.237-.716.712M59.786,60.26c-.237-1.191,1.907-1.428,1.665-.237-.233.474-1.191.237-1.665.237M60.739,163.634c-1.191-1.428-2.381,1.665-.237,1.191,0-.716.479-.475.237-1.191M59.549,84.556c0,.237-.237.237-.237.237,0,.716.237.953.949.953.242-.716-.233-1.191-.712-1.191M59.549,154.579c-.474.716-.474,1.432.479,1.669.233-.474.233-1.669-.479-1.669M60.028,122.665v-.953c-.716-.237-.953,0-.953.475.474,0,.237.479.953.479M59.312,152.914c-.237.479-.716.716-.237,1.191.712.237.712-1.191.237-1.191M59.786,62.642h-.712c-.479.237-.479,1.67.237,1.67,0-.475.474-.953.474-1.67M58.595,86.459c0,.479-.237,1.669.242,2.144.237-.949.712-1.902-.242-2.144M58.595,101.229c-.475.953,0,2.618,1.191,2.618,0-1.428-.474-2.14-1.191-2.618M60.739,168.638c.242-1.191-1.191-1.907-2.381-1.191.237.949,1.428,1.191,2.381,1.191M58.837,159.82c0-.474,0-1.186-.479-1.186.716-.242.953.712,1.902.474.242.953-.712.712-1.423.712M59.074,107.894c0-.47.712-.233.712-.949-.712-.242-.949-.953-1.428-1.191-.474.712.479,1.428.716,2.14M58.121,93.128c.475-.237.716-.712.953-1.186-.953-.242-.716.712-.953,1.186M59.312,128.618c1.191.716-.716,2.144-1.191,2.623-.716-1.191.953-1.432,1.191-2.623M59.074,126.474c-.237,0-.237-.237-.237-.475-.479,0-.953,0-.953.237.237,0,.953.958,1.191.237M60.028,75.506c0-.716.233-1.907-.479-2.144-.237.953-1.902.474-1.665,1.669,1.191-.242,1.191.474,2.144.474M58.358,151.486c.479-.237,0-1.191-.474-1.191,0,.474-.237,1.191.474,1.191M59.074,109.805c0-1.195-.716-.479-1.428-.479,0,.716.949.716,1.428.479M60.028,54.782c-.716-.716,0-1.907,0-3.097,1.191.716,0,2.381.953,3.097-.721.953-1.669,1.907-2.86,2.618,0-.953-.474-.953-.474-1.665.949,0,1.902-.474,2.381-.953M58.358,115.042c-.237,0-.474-.242-.712-.242,0,.721-.242,1.669.474,1.669-.237-.712.237-.712.237-1.428M58.595,162.918c-1.191.479-1.191-.712-.712-1.191.712-.237,1.191.716.712,1.191M58.837,145.533c-.716-.242-1.191-.242-1.432.233,0,.721.479.721,1.191.721.242-.242.242-.479.242-.953M59.549,142.198h-2.144c0,.474,0,1.191.242,1.428,1.191,0,1.428-.716,1.902-1.428M57.168,175.544c-.237.475-.479.712-.479,1.428.716.237.958-1.195.479-1.428M56.689,149.816c.958,0,1.669-.237,1.907-1.186,0-.242,0-.479-.237-.479-.237.953-1.191,1.191-1.669,1.665M56.689,140.766c.716,0,1.907.479,1.907-.712-.475-.242-1.665-.242-1.907,0v.712ZM56.689,78.84c.716.474.716,1.428,2.148,1.186,0-.474.712-.237.712-.712-1.191-.716.237-.953.479-1.907-.479,0-.479-.237-.953-.237.237,1.67-2.144.474-2.386,1.67M56.456,100.988c.712,0,.949-.237.949-.949-.716.237-.474-.242-.949-.242-.242.242-.242.953,0,1.191M56.214,91.7c.242.242.953.242,1.432.242v-1.432c-.716.237-1.432.479-1.432,1.191M57.168,171.968c-.712-.475-.237-1.191,0-1.665-1.195-.237-.953,1.191-1.195,1.907.483-.242,1.195.237,1.195-.242M56.93,72.171c.237.712.716.949,1.191,1.191-1.432,1.191-1.432-1.432-2.386-1.67.721-.237.953-.716,1.195-1.428.953,0,.237,1.665,0,1.907M57.168,66.214c-.237.953-1.432.474-1.432,1.432,1.432.474,4.051.237,3.339-1.432-.479.953-1.191.237-1.907,0M56.456,103.848c-.242-.237-.483-.237-1.195-.237-.242.712,1.195.949,1.195.237M55.498,169.112c0-.953,1.191-.953.958-1.907h-.958c.237.716-.712,1.432,0,1.907M55.735,98.848c.953-1.195,2.386-.237,3.814-.716-1.428-1.191-2.618,0-4.288-.479-.242.716.474.716.474,1.195M57.405,126.953c-.949.242-1.432.474-2.386.949.479-1.665,1.437-3.567,3.102-3.33,0,1.191-1.665.949-.716,2.381M56.456,153.63c0-.479-.242-.953-.958-.953-.237.475-.237,1.191-.712,1.428.949.237.949-.474,1.67-.474M54.786,85.031c1.428,0,.949,1.669,2.381,1.669.237-1.428-1.432-2.618-2.381-1.669M55.019,110.042c.716-.237,1.195-.479.953-1.669-.712-.237-1.665.953-.953,1.669M55.735,130.05c-1.428-.479-1.665,3.097,0,2.619-.474-1.191-.237-1.428,0-2.619M56.93,64.069c-.958-.233-1.195.475-2.386.242.474.474.474,1.428.953,1.665.475-.712,1.191-.953,1.432-1.907M54.307,144.579c1.191.712,1.191,2.618,3.097,2.618-1.432,1.432-1.907-1.191-3.097-1.432v-1.186ZM54.307,118.14v.949c.953-.233,1.907.716,2.623,0-.958-.233-1.911-.233-2.623-.949M54.07,61.925c.237,0,.475,0,.475.242q0,.237-.237.474c.953,0,.479-1.191,1.665-.953.716.953,1.432.479,2.386.237-.474-.237-1.669-.237-1.669-.949-.953.712-1.191.237-2.144-.242,0,.716-.712.479-.475,1.191M54.545,171.968h-.949c0,.479.237.479.712.479-.237.474-.237.949.237,1.186.716-.47,0-.949,0-1.665M53.596,151.965c-.242.712-.242,1.186.474,1.186.237-.237.237-1.186-.474-1.186M53.354,108.373c0-.712.479-.949,1.191-.949v1.186c-.475,0-.949,0-1.191-.237M53.354,52.163c.716,0,.953-.237.953-.716-.474,0-1.186,0-.953.716M54.07,156.486c-.474-.237-.237-1.191-.716-.949-.474.237,0,1.665.716.949M55.735,83.128c-.716,0-.716.712-1.428.475,0-.716.712-.716.712-1.428,0-.479-.233-.716-.712-.479-.474-1.67.479-2.144.953-3.097-.475-.712-.953.716-1.428,0,0-.712-.479-.953-.712-1.428,0-.953.474-1.428,1.423-1.191.242.716-.475.716-.237,1.191.479.716.953.237,2.149.237,0,1.432-1.911,1.669-.958,3.097,1.191-.716,1.67.242,2.386.479-1.428,0-2.149.712-2.149,2.144M52.879,116.47c.716.479.953-.474,1.907-.237,0-1.432,1.428-.953,1.67-1.907-.242-.474-.721-.949-1.67-.949.233,1.902-1.665,1.665-1.907,3.093M52.642,53.828c.712.237.479-1.428.237-1.428-.237.237-.237.716-.237,1.428M52.405,80.505c-.237,0-.237-.237-.716-.237-.237.237-.475,1.191,0,1.191,0-.475.953-.237.716-.953M51.689,75.743c1.191,0,.716-1.669.479-2.144h-.716c0,.716-.237,1.665.237,2.144M53.121,64.544c-.242.479-.953.721-1.907.721v1.665c.712.479,1.191,1.191,2.14,1.428-.712-1.191.242-2.856-.233-3.814M52.879,70.027c-.953,0-1.191.475-1.902.712,0,.479,0,.953.474.953-.237-1.191,1.428-.716,1.428-1.665M51.452,76.217c-.474,1.191-2.149.479-2.386-.712.479,0,.479-.242.716-.242.721.242.958.716,1.669.953M49.545,67.409c-.479-.479-.479,0-.953,0,0,.474,0,.949.237,1.191.237-.479.953-.479.716-1.191M47.634,53.117c0,.949.958.949,1.669,1.191.716-.479,1.674-.958,2.149-1.669-2.149-.237-1.907.953-3.818.479M48.354,69.074c-.475-.242-.721-.716-1.432-.475-.475.949,1.191,1.191,1.432.475M48.113,50.731c-.712,0-1.191.474-1.423.953.712,0,1.423,0,1.423-.953M50.977,55.261c.712.233.474.949,1.191.949.474,0,.474-.475.474-1.191.479,0,.953,0,1.428.242-.237.712-.474.949-.237,1.665-1.665.237-1.665,1.907-1.907,3.097,0,.712.953.474,1.195,0,.712.712-.479,1.428-.716,1.902,0,.242.237.242.237.479.479.475,1.428.237,1.902.712.242.479,0,.953-.237,1.195-.953-.475-1.428-1.432-2.618-.475-.237-1.195-.949-1.669-2.144-1.911.474-.474,1.432-.237,1.432-.949-.237-.953-1.432.237-1.911-.479,0-.716.716-.949.953-1.428-.237-.716-.474-1.432-1.428-1.669-.237.479,0,1.432-.479,1.907-.953-.237-1.191-.716-2.144-.474,0-.953.479-.716,1.191-.479.474-1.191-1.191-.953-.712-2.618,1.186.475,2.144,1.665,3.335.712.237.479.474.953.721,1.432.712-.242,1.423-.479,1.186-1.432-.237-.237-.949-.237-.712-1.186M47.401,61.451c0-.953-.953-1.191-1.665-1.428.479.712.712,1.191,1.665,1.428M45.736,48.35c.479.716,1.423.953,2.377,1.191-.233-.953-1.423-1.902-2.377-1.191M45.736,67.883c.712.237.233,1.428-.479,1.428-.479-.479.479-.712.479-1.428M45.02,56.926c0,.712.475.953,1.195.953,0-.242.233-.479.233-.953h-1.428ZM45.494,64.544h-1.428c0,.242,0,.721.237.958.716-.237,1.191-.237,1.191-.958M44.066,51.447c-.237-.716.474-.479.237-1.191-.475,0-.712-.237-1.428-.237.237.949-.712,1.186,0,1.665.479,0,.479-.479,1.191-.237M42.876,56.926c-.237-.479-.237-.953-.712-1.191,0,.712-.242,1.428.712,1.191M42.164,55.494c-.242-.475.237-.475.237-1.186h-.721c0,.712,0,1.186.483,1.186M42.876,42.871c-1.195,0-1.195.237-2.144,0-.237,1.432,2.381.953,2.144,0M40.494,46.922c-.242,0-1.191-.237-1.191.237.474.237,1.191.712,1.191-.237M40.015,50.968c0-.712-.712-.474-.953-.949-.237.949.479,1.428.953.949M38.113,34.3c-.716,0-1.911,0-1.669,1.191.479.233,1.669-.479,1.669-1.191M36.923,34.058c0-.475.475-.475.475-.953-.237,0-.237-.237-.475-.474-.479.474-.953,1.191,0,1.428M34.062,23.817c-.242-.237-1.191-.475-1.191.237.474.237.949.237,1.191-.237M33.109,30.96c-.475,0-.953.242-1.428.479,0,.475.474.475.237.953,1.191.237,1.191-.716,1.191-1.432M30.012,23.342c-.237.237-.949,1.186-.237,1.665.237-.479,1.432-1.428.237-1.665M115.047,0s-.237,2.144-1.665,3.335c-2.381,2.144-4.767.953-9.292,8.334v-.237l-.712,1.428s-16.915,33.825-24.775,49.308c-1.67,4.284,4.525,7.381,4.525,7.381,0,0-10.241,4.525-13.101,15.724-.479,2.618-.479,4.762-.479,6.906v98.606c0,6.195,4.055,7.148,5.716,8.339,1.432,1.186,1.911,3.335,1.911,3.335h-39.304s.479-2.148,1.907-3.335c1.67-1.191,5.958-2.144,5.958-8.339v-98.606c0-2.144-.242-4.288-.716-6.906-2.856-11.199-13.101-15.724-13.101-15.724,0,0,6.195-3.097,4.525-7.381L10.957,11.432v.237C6.432,4.288,4.051,5.479,1.669,3.335.242,2.144,0,0,0,0h42.164s-.242,2.144-1.669,3.335c-1.432,1.191-4.758,2.856-3.572,6.432l15.245,30.244c2.851,5.958,7.86,5.958,10.716,0l15.241-30.244c1.195-3.576-2.14-5.241-3.567-6.432s-1.669-3.335-1.669-3.335h42.16ZM394.017,86.999c-1.544,0-2.977-.291-4.288-.877-1.316-.582-2.462-1.365-3.442-2.346s-1.75-2.13-2.314-3.442c-.564-1.312-.846-2.721-.846-4.225v-.063c0-1.5.282-2.909.846-4.225.564-1.311,1.334-2.471,2.314-3.473.98-.998,2.135-1.79,3.473-2.377,1.334-.582,2.753-.877,4.257-.877,1.54,0,2.972.295,4.288.877,1.311.586,2.457,1.365,3.442,2.345.98.98,1.755,2.131,2.314,3.442.564,1.316.846,2.726.846,4.225v.063c0,1.504-.282,2.909-.846,4.225-.56,1.316-1.334,2.475-2.314,3.473-.985,1.003-2.14,1.795-3.473,2.377-1.338.586-2.757.877-4.257.877M394.017,85.813c1.379,0,2.65-.26,3.818-.783,1.168-.524,2.18-1.222,3.035-2.095.855-.877,1.531-1.911,2.037-3.102.501-1.186.752-2.453.752-3.787v-.063c0-1.334-.246-2.587-.721-3.755-.483-1.168-1.159-2.189-2.037-3.066s-1.898-1.576-3.066-2.095c-1.168-.524-2.439-.783-3.818-.783s-2.645.26-3.818.783c-1.168.519-2.18,1.217-3.035,2.095-.855.877-1.535,1.911-2.037,3.097-.497,1.191-.747,2.453-.747,3.787v.063c0,1.334.237,2.587.716,3.755.483,1.168,1.159,2.193,2.037,3.071.877.873,1.898,1.571,3.066,2.095,1.173.524,2.444.783,3.818.783M389.514,70.165h5.317c1.334,0,2.43.3,3.281.909.859.604,1.285,1.553,1.285,2.847,0,.918-.224,1.669-.685,2.251-.457.586-1.065,1.003-1.817,1.253l2.878,4.069h-3.317l-2.439-3.567h-1.75v3.567h-2.753v-11.329ZM394.644,75.67c1.294,0,1.938-.519,1.938-1.562s-.645-1.567-1.938-1.567h-2.377v3.129h2.377Z" fill="#87802e"/>
  </g>
</svg>